<svg viewBox="0 0 200 118" xmlns="http://www.w3.org/2000/svg">
<path d="M70.6862 36.1003C69.8983 37.5177 68.9373 38.5645 67.8032 39.2405C66.6691 39.9166 65.2488 40.2606 63.5423 40.2727C62.3328 40.287 61.1309 40.0792 59.9966 39.6596C58.9338 39.2553 57.9907 38.5888 57.2552 37.7221C56.4464 36.743 55.8437 35.6107 55.4833 34.3933C55.0573 33.0545 54.8442 31.4563 54.8442 29.5986C54.8538 27.9892 55.0124 26.3842 55.3181 24.804C55.616 23.1646 56.1998 21.5903 57.0428 20.1527C57.8889 18.7239 59.064 17.5173 60.4704 16.6334C61.9228 15.7046 63.7819 15.2401 66.0476 15.2401C66.8697 15.2248 67.6897 15.328 68.4822 15.5467C69.1059 15.7262 69.6963 16.0056 70.2305 16.374C70.7037 16.6992 71.1078 17.1148 71.4197 17.5966C71.7174 18.0659 71.9478 18.5746 72.1041 19.1078C72.1041 19.1386 72.1041 19.0207 72.1277 18.745C72.1513 18.4692 72.1677 18.1699 72.1985 17.8234C72.2294 17.4769 72.2548 17.1395 72.2711 16.8075C72.2875 16.4755 72.2947 16.2633 72.2947 16.1708C72.3256 15.8551 72.5308 15.6973 72.9084 15.6973H75.087C76.7245 15.6973 77.9137 16.0359 78.6544 16.7132C79.3951 17.3904 79.7655 18.6736 79.7655 20.5627C79.7655 20.8154 79.7498 21.3899 79.7183 22.2861C79.6868 23.1822 79.6317 24.261 79.5531 25.5224C79.4744 26.7814 79.3721 28.1722 79.2463 29.6948C79.1204 31.2174 78.9788 32.7527 78.8214 34.3007C78.6617 35.8427 78.488 37.3224 78.3004 38.7398C78.1128 40.1572 77.9082 41.4011 77.6867 42.4714C77.4591 43.559 77.077 44.6085 76.5521 45.588C75.9867 46.6302 75.2145 47.5462 74.2827 48.2801C73.306 49.0674 72.0533 49.6975 70.5246 50.1704C68.996 50.6432 67.1291 50.8791 64.9238 50.8779C63.4528 50.8999 61.9846 50.7415 60.5521 50.4062C59.4604 50.1538 58.4153 49.7314 57.4549 49.1545C56.7111 48.7072 56.0742 48.103 55.5886 47.3839C55.1872 46.7985 54.9651 46.1088 54.9495 45.3993C54.9354 44.8555 55.0664 44.3176 55.329 43.841C55.5722 43.4076 55.9112 43.0353 56.3202 42.7526C56.7318 42.4688 57.1868 42.2538 57.6673 42.1158C58.1195 41.9783 58.589 41.9062 59.0616 41.9018C59.5978 41.9018 59.9918 42.0596 60.2435 42.3752L61.095 43.4383C61.4632 43.8743 61.9127 44.2347 62.4185 44.4995C62.9867 44.8152 63.8709 44.973 65.0655 44.973C67.146 44.973 68.6032 44.2093 69.4372 42.6818C70.2711 41.1544 70.6874 38.9605 70.6862 36.1003ZM66.7157 33.9742C67.851 33.9742 68.7412 33.7069 69.3863 33.1724C70.0238 32.6483 70.533 31.9857 70.875 31.2349C71.2196 30.4889 71.4433 29.6929 71.5377 28.8766C71.6248 28.1718 71.6721 27.4625 71.6793 26.7523C71.6793 24.8621 71.3876 23.516 70.8042 22.7142C70.2208 21.9124 69.3464 21.5108 68.1808 21.5096C67.0153 21.5096 66.1015 21.8247 65.4394 22.4548C64.7805 23.0805 64.2716 23.847 63.9507 24.697C63.6281 25.5321 63.4139 26.4052 63.3135 27.2947C63.2324 27.9613 63.1852 28.6316 63.1719 29.3029C63.1719 30.8751 63.4394 32.0477 63.9743 32.8205C64.5093 33.5933 65.4231 33.9803 66.7157 33.9815V33.9742Z" fill="#13385E"/>
<path d="M94.8414 42.1539C93.446 42.1524 92.0562 41.9775 90.7039 41.6332C89.3628 41.301 88.1069 40.6896 87.0185 39.8391C85.8797 38.9243 84.966 37.7607 84.3479 36.4377C83.6544 35.0203 83.3076 33.2413 83.3076 31.1007C83.3149 30.1535 83.3755 29.2074 83.4892 28.267C83.6238 27.113 83.867 25.9741 84.2154 24.8656C84.5955 23.6588 85.1025 22.4955 85.7277 21.3953C86.3879 20.2272 87.2433 19.1805 88.2567 18.3005C89.3763 17.34 90.6597 16.5885 92.0456 16.0818C93.5307 15.5195 95.2977 15.2383 97.3468 15.2383C98.9844 15.2383 100.371 15.4269 101.506 15.8043C102.519 16.1144 103.454 16.6384 104.248 17.3408C104.921 17.9588 105.439 18.7271 105.76 19.583C106.079 20.4608 106.239 21.3884 106.232 22.3223C106.232 23.7736 105.941 25.0017 105.359 26.0067C104.789 26.9994 104.015 27.8605 103.089 28.5337C102.146 29.2177 101.101 29.7508 99.9938 30.1138C98.8964 30.4825 97.7748 30.7746 96.637 30.9882C95.6303 31.181 94.612 31.307 93.5888 31.3655C92.6592 31.4127 91.9403 31.4363 91.4374 31.4363C91.4379 32.0365 91.5253 32.6334 91.697 33.2086C91.8568 33.7653 92.1218 34.2863 92.4777 34.7433C92.8473 35.2041 93.3157 35.576 93.8484 35.8318C94.4989 36.1326 95.2106 36.278 95.9271 36.2563C96.7477 36.2563 97.3862 36.1226 97.8424 35.8554C98.2607 35.6168 98.6362 35.3103 98.9535 34.9483C99.2367 34.6182 99.4788 34.3188 99.6797 34.0504C99.775 33.9216 99.9001 33.8179 100.044 33.7481C100.188 33.6783 100.347 33.6444 100.508 33.6494C100.786 33.666 101.063 33.7054 101.335 33.7674C102.264 33.9753 103.081 34.5227 103.627 35.3021C103.96 35.8051 104.126 36.4007 104.1 37.0037C104.117 37.8677 103.814 38.7074 103.249 39.362C102.643 40.0527 101.893 40.6014 101.05 40.9693C100.093 41.3958 99.0842 41.697 98.0494 41.8654C96.9903 42.0528 95.917 42.1493 94.8414 42.1539V42.1539ZM95.7383 21.5132C95.0966 21.4949 94.469 21.7037 93.9664 22.1028C93.4641 22.5144 93.0466 23.0196 92.7373 23.5903C92.3967 24.2161 92.1421 24.8849 91.9802 25.5786C91.8084 26.3042 91.6746 26.9966 91.579 27.6557C93.5325 27.6243 95.1162 27.2941 96.3301 26.6652C97.5441 26.0363 98.1493 25.139 98.1456 23.9731C98.15 23.3551 97.9417 22.7543 97.5556 22.2715C97.1622 21.7672 96.5565 21.5144 95.7383 21.5132Z" fill="#13385E"/>
<path d="M107.744 41.6804C107.673 41.6904 107.602 41.6839 107.534 41.6613C107.466 41.6388 107.405 41.6009 107.355 41.5505C107.304 41.5002 107.266 41.4389 107.244 41.3714C107.221 41.3039 107.215 41.2321 107.225 41.1616L107.366 38.611C107.41 37.7241 107.715 36.8698 108.241 36.1547C108.791 35.3674 109.57 34.3914 110.58 33.2268C111.589 32.0621 112.834 30.5897 114.314 28.8095C115.796 27.0317 117.513 24.7096 119.467 21.8434H110.58C110.327 21.8434 110.179 21.789 110.131 21.6783C110.076 21.5192 110.052 21.3511 110.061 21.1831L110.202 19.0062C110.233 18.6017 110.288 18.1995 110.367 17.8016C110.443 17.416 110.605 17.0526 110.841 16.7385C111.107 16.4013 111.458 16.1409 111.858 15.9839C112.416 15.7731 113.01 15.6762 113.606 15.6991H129.764C129.948 15.6975 130.128 15.7471 130.285 15.8424C130.368 15.8996 130.433 15.978 130.475 16.0694C130.516 16.1607 130.532 16.2615 130.521 16.3612L130.34 18.9118C130.307 19.6991 129.992 20.5336 129.394 21.4153C129.299 21.5737 128.89 22.0774 128.165 22.9264C127.44 23.7754 126.549 24.8536 125.494 26.1609C124.437 27.4658 123.273 28.9316 122.001 30.5583C120.729 32.1849 119.476 33.846 118.243 35.5416H128.355C128.538 35.54 128.718 35.5889 128.874 35.683C128.958 35.7398 129.024 35.818 129.066 35.9095C129.107 36.0009 129.124 36.102 129.112 36.2019L128.931 38.5167C128.865 39.46 128.606 40.2255 128.15 40.8078C127.694 41.3902 126.756 41.6804 125.338 41.6804H107.744Z" fill="#13385E"/>
<path d="M148.442 36.1003C147.654 37.5177 146.693 38.5644 145.559 39.2405C144.425 39.9165 143.007 40.2606 141.305 40.2727C140.095 40.287 138.894 40.0792 137.759 39.6595C136.697 39.2553 135.753 38.5887 135.018 37.7221C134.208 36.7434 133.606 35.611 133.246 34.3932C132.819 33.0545 132.606 31.4562 132.607 29.5986C132.614 27.9864 132.771 26.3782 133.075 24.7949C133.373 23.1555 133.957 21.5812 134.8 20.1436C135.646 18.7148 136.821 17.5083 138.228 16.6243C139.68 15.6955 141.539 15.2311 143.805 15.2311C144.627 15.2157 145.447 15.3189 146.239 15.5376C146.863 15.7171 147.454 15.9965 147.988 16.3649C148.461 16.693 148.865 17.1116 149.175 17.5966C149.473 18.0659 149.703 18.5746 149.86 19.1078C149.86 19.1386 149.86 19.0207 149.883 18.7449C149.907 18.4692 149.923 18.1699 149.954 17.8234C149.985 17.4769 150.01 17.1395 150.025 16.8075C150.039 16.4755 150.05 16.2633 150.05 16.1707C150.081 15.8551 150.286 15.6973 150.664 15.6973H152.842C154.48 15.6973 155.669 16.0359 156.41 16.7132C157.151 17.3904 157.521 18.6736 157.521 20.5627C157.521 20.8154 157.505 21.3899 157.474 22.286C157.442 23.1822 157.387 24.261 157.309 25.5224C157.229 26.7813 157.126 28.1721 157.002 29.6948C156.877 31.2174 156.735 32.7527 156.575 34.3007C156.418 35.8427 156.245 37.3224 156.056 38.7398C155.867 40.1572 155.662 41.4011 155.442 42.4714C155.215 43.559 154.832 44.6084 154.308 45.588C153.742 46.6302 152.97 47.5462 152.038 48.2801C151.061 49.0674 149.809 49.6975 148.28 50.1704C146.751 50.6432 144.885 50.8791 142.679 50.8778C141.208 50.8998 139.739 50.7414 138.306 50.4062C137.218 50.1525 136.176 49.7302 135.219 49.1545C134.476 48.7072 133.839 48.1029 133.353 47.3839C132.951 46.7988 132.729 46.109 132.714 45.3993C132.7 44.8554 132.831 44.3176 133.093 43.841C133.337 43.4075 133.676 43.0353 134.085 42.7526C134.496 42.4688 134.951 42.2538 135.432 42.1158C135.884 41.9783 136.354 41.9062 136.826 41.9018C137.361 41.9018 137.755 42.0596 138.008 42.3752L138.859 43.4383C139.228 43.8743 139.677 44.2347 140.183 44.4995C140.749 44.8152 141.632 44.973 142.83 44.973C144.911 44.973 146.368 44.2093 147.202 42.6818C148.036 41.1543 148.449 38.9605 148.442 36.1003ZM144.471 33.9742C145.606 33.9742 146.497 33.7069 147.142 33.1724C147.779 32.6483 148.288 31.9856 148.63 31.2349C148.975 30.4889 149.199 29.6928 149.293 28.8766C149.38 28.1717 149.428 27.4625 149.435 26.7523C149.435 24.862 149.143 23.516 148.56 22.7142C147.976 21.9123 147.102 21.5108 145.936 21.5096C144.771 21.5096 143.857 21.8247 143.195 22.4547C142.536 23.0805 142.027 23.847 141.706 24.697C141.381 25.533 141.165 26.4073 141.064 27.2984C140.982 27.9649 140.935 28.6352 140.922 29.3065C140.922 30.8788 141.189 32.0513 141.724 32.8241C142.259 33.5969 143.175 33.9827 144.471 33.9815V33.9742Z" fill="#13385E"/>
<path d="M166.546 41.6805C165.739 41.7039 164.933 41.6004 164.159 41.3739C163.606 41.2069 163.103 40.9066 162.693 40.4995C162.323 40.1094 162.062 39.629 161.936 39.1063C161.786 38.4785 161.714 37.8343 161.724 37.1888C161.724 36.7153 161.748 36.0477 161.795 35.1806C161.842 34.3135 161.929 33.1198 162.056 31.5924C162.183 30.0649 162.33 28.1274 162.505 25.7873C162.679 23.4471 162.89 20.5373 163.142 17.0797C163.173 16.3885 163.253 15.9785 163.38 15.8533C163.474 15.7572 163.725 15.71 164.135 15.71H165.978C166.783 15.6879 167.587 15.7839 168.365 15.9948C168.918 16.147 169.423 16.4394 169.83 16.8438C170.196 17.2278 170.457 17.6995 170.587 18.2135C170.735 18.8005 170.806 19.4041 170.8 20.0094C170.8 20.4811 170.768 21.1892 170.705 22.1337C170.642 23.0782 170.556 24.3614 170.446 25.9832C170.334 27.605 170.185 29.6204 169.997 32.0295C169.81 34.4387 169.573 37.3412 169.287 40.7372C169.256 41.1145 169.177 41.3667 169.051 41.4918C168.926 41.617 168.657 41.6732 168.247 41.6732L166.546 41.6805ZM163.189 10.1299C163.189 8.87092 163.646 7.87922 164.56 7.1548C165.474 6.43037 166.703 6.06755 168.247 6.06635C169.601 6.06635 170.586 6.34209 171.201 6.89357C171.506 7.16938 171.747 7.50902 171.907 7.88838C172.066 8.26775 172.14 8.67752 172.123 9.08861C172.134 9.63822 172.023 10.1834 171.798 10.6852C171.573 11.1869 171.241 11.6329 170.823 11.9912C169.958 12.7627 168.687 13.1479 167.011 13.1467C164.463 13.1504 163.189 12.1447 163.189 10.1299Z" fill="#13385E"/>
<path d="M191.077 37.5244C191.077 36.8314 191.133 35.9243 191.244 34.8032C191.355 33.6821 191.465 32.5012 191.574 31.2603C191.683 30.0171 191.793 28.8125 191.905 27.6467C192.015 26.4838 192.07 25.506 192.07 24.7187C192.083 23.9463 191.878 23.1858 191.48 22.5237C191.084 21.8779 190.322 21.555 189.187 21.555C188.083 21.555 187.169 21.8222 186.446 22.3568C185.722 22.8913 185.117 23.8679 184.63 25.2865C184.146 26.704 183.745 28.6559 183.426 31.1424C183.108 33.6289 182.809 36.8253 182.528 40.7317C182.495 41.109 182.417 41.3612 182.292 41.4863C182.166 41.6115 181.896 41.6677 181.487 41.6677H179.786C178.979 41.6913 178.174 41.5878 177.399 41.3612C176.846 41.1946 176.343 40.8943 175.934 40.4868C175.564 40.0967 175.303 39.6162 175.177 39.0936C175.025 38.4701 174.952 37.8303 174.959 37.1888C174.959 36.7153 174.983 36.0477 175.03 35.1806C175.077 34.3134 175.164 33.1198 175.289 31.5923C175.415 30.0648 175.565 28.1274 175.74 25.7872C175.914 23.4471 176.124 20.5373 176.377 17.0796C176.408 16.3884 176.488 15.9785 176.613 15.8533C176.707 15.7571 176.96 15.71 177.37 15.71H179.213C180.004 15.6852 180.794 15.795 181.549 16.0347C182.101 16.2175 182.609 16.5148 183.038 16.9073C183.408 17.2564 183.685 17.6931 183.842 18.1771C183.999 18.6591 184.094 19.1589 184.125 19.6647C185.102 17.9969 186.221 16.8402 187.482 16.1943C188.743 15.5485 190.317 15.2256 192.202 15.2256C193.366 15.2055 194.528 15.3484 195.652 15.6501C196.578 15.9041 197.418 16.4015 198.086 17.0905C198.773 17.8441 199.268 18.752 199.528 19.7373C199.843 20.8257 200 22.1718 200 23.7754C200 24.2785 199.969 25.0042 199.906 25.9523C199.843 26.9005 199.764 27.9321 199.67 29.0471C199.575 30.1646 199.473 31.3293 199.363 32.5411C199.253 33.7529 199.15 34.8788 199.054 35.9189C198.96 36.9578 198.881 37.8709 198.818 38.6582C198.755 39.4455 198.724 39.9649 198.724 40.2165C198.724 40.9095 198.645 41.3267 198.488 41.4682C198.33 41.6097 197.984 41.6804 197.447 41.6804H195.935C195.106 41.7026 194.279 41.6073 193.477 41.3974C192.929 41.2555 192.426 40.9792 192.012 40.5938C191.659 40.2329 191.408 39.7846 191.286 39.2949C191.137 38.7168 191.067 38.1212 191.077 37.5244V37.5244Z" fill="#13385E"/>
<path d="M17.5794 42.8959L3.93417 0L0 54.6385L17.5794 42.8959Z" fill="#13385E"/>
<path d="M45.9427 35.1951L3.93408 0L25.2697 39.6396L45.9427 35.1951Z" fill="#13385E"/>
<path d="M3.93408 0L20.6602 45.0474L17.1599 46.5277L25.1681 50.2248L28.0819 41.9072L24.6724 43.3494L3.93408 0Z" fill="#FADD02"/>
<path d="M161.49 56.7192C155.647 80.081 121.342 117.021 73.4963 99.4827C92.7587 101.828 112.695 94.0277 125.029 77.3055C129.176 71.6839 132.22 65.3284 133.999 58.5751C123.82 77.1985 104.08 89.859 81.3501 89.859C58.9125 89.859 39.3651 77.5449 29.064 59.3206C39.9406 92.805 71.394 117.021 108.53 117.021C146.617 117.021 178.729 91.5443 188.785 56.7192H161.49Z" fill="#FADD02"/>
<path d="M41.4603 56.7192C41.4606 57.4674 41.2389 58.199 40.8231 58.8213C40.4073 59.4436 39.8161 59.9286 39.1244 60.2151C38.4326 60.5016 37.6714 60.5767 36.9369 60.4308C36.2025 60.2849 35.5278 59.9246 34.9983 59.3956C34.4688 58.8665 34.1083 58.1924 33.9623 57.4585C33.8163 56.7246 33.8914 55.964 34.1781 55.2727C34.4649 54.5815 34.9503 53.9908 35.5731 53.5753C36.1958 53.1599 36.9279 52.9383 37.6768 52.9387C38.6802 52.9387 39.6426 53.337 40.3521 54.046C41.0616 54.7549 41.4603 55.7165 41.4603 56.7192Z" fill="#FADD02"/>
<path d="M17.9009 58.6113C17.9009 58.9855 17.7898 59.3514 17.5818 59.6625C17.3737 59.9737 17.078 60.2162 16.732 60.3594C16.386 60.5026 16.0052 60.5401 15.6379 60.4671C15.2706 60.394 14.9332 60.2138 14.6684 59.9492C14.4036 59.6846 14.2232 59.3475 14.1502 58.9805C14.0771 58.6134 14.1146 58.233 14.2579 57.8873C14.4012 57.5415 14.6439 57.246 14.9553 57.0381C15.2667 56.8302 15.6328 56.7192 16.0073 56.7192C16.256 56.7192 16.5022 56.7682 16.732 56.8633C16.9617 56.9584 17.1704 57.0977 17.3463 57.2734C17.5221 57.4491 17.6616 57.6577 17.7567 57.8873C17.8519 58.1168 17.9009 58.3629 17.9009 58.6113V58.6113Z" fill="#FADD02"/>
<path d="M22.6084 85.6013C25.838 85.6013 28.4561 82.9852 28.4561 79.7581C28.4561 76.531 25.838 73.9149 22.6084 73.9149C19.3788 73.9149 16.7607 76.531 16.7607 79.7581C16.7607 82.9852 19.3788 85.6013 22.6084 85.6013Z" fill="#DDBD00"/>
<path d="M73.4963 99.4827C92.7587 101.828 112.696 94.0277 125.029 77.3055C129.176 71.6839 132.22 65.3284 133.999 58.575C123.82 77.1984 104.08 89.8589 81.3501 89.8589C58.9125 89.8589 39.3651 77.5449 29.064 59.3206C39.6102 88.1646 73.4963 99.4827 73.4963 99.4827Z" fill="#DDBD00"/>
</svg>
