<svg xmlns="http://www.w3.org/2000/svg" viewBox="0 0 22 22">
  <path fill="currentColor" d="M17.511 8.874c-.568 0-1.11.106-1.611.3-.392-.872-.731-1.793-.9-2.65a2.954 2.954 0 00-2.893-2.376.645.645 0 000 1.289 1.667 1.667 0 011.458.867.636.636 0 00-.048.07l-.2.337-1.013 1.705H6.89l-.307-.774h.127a.645.645 0 000-1.29H4.49a.645.645 0 000 1.29h.707l.563 1.415A4.494 4.494 0 000 13.363a4.494 4.494 0 004.489 4.489 4.496 4.496 0 004.442-3.844h1.184c.227 0 .438-.12.554-.316l3.387-5.702c.199.615.448 1.231.716 1.82a4.484 4.484 0 00-1.75 3.553 4.494 4.494 0 004.49 4.49A4.494 4.494 0 0022 13.362a4.494 4.494 0 00-4.489-4.489zM4.49 14.008h3.135a3.205 3.205 0 01-3.135 2.555 3.204 3.204 0 01-3.2-3.2c0-1.764 1.436-3.2 3.2-3.2a3.205 3.205 0 013.135 2.556H4.489a.645.645 0 000 1.289zm5.26-1.29H8.93a4.483 4.483 0 00-1.385-2.639.637.637 0 00-.025-.077l-.118-.297h4.135l-1.79 3.014zm7.762 3.845a3.203 3.203 0 01-3.2-3.2c0-.935.403-1.777 1.044-2.362a28.564 28.564 0 001.626 2.728.644.644 0 101.06-.732 28.19 28.19 0 01-1.574-2.658 3.203 3.203 0 014.244 3.024c0 1.764-1.435 3.2-3.2 3.2z"/>
</svg>
