<svg xmlns="http://www.w3.org/2000/svg" viewBox="0 0 22 22">
  <path fill="currentColor" d="M20.78 8.83l-7.94-3.293a.644.644 0 00-.891.595v1.231l-.832-.809.16-.16a.645.645 0 00-.91-.912L9.12 6.728a.645.645 0 00.912.911l.174-.173.742.722H7.153V6.075a.645.645 0 00-.856-.609l-2.706.94A4.145 4.145 0 00.807 10.32v1.628H.645a.645.645 0 000 1.289h.432a2.534 2.534 0 001.737 1.338 2.465 2.465 0 002.439 2.132 2.465 2.465 0 002.43-2.078h6.354a2.465 2.465 0 002.431 2.078 2.465 2.465 0 002.431-2.078h1.125c1.09 0 1.976-.887 1.976-1.976v-1.998a1.97 1.97 0 00-1.22-1.825zM5.254 15.418a1.174 1.174 0 01-1.173-1.173 1.173 1.173 0 012.344 0c0 .647-.525 1.173-1.171 1.173zm11.215 0a1.173 1.173 0 111.172-1.172c0 .646-.526 1.172-1.172 1.172zm4.243-2.765a.688.688 0 01-.687.687h-1.268a2.465 2.465 0 00-2.288-1.556 2.464 2.464 0 00-2.288 1.556H7.54a2.465 2.465 0 00-2.287-1.556 2.465 2.465 0 00-2.268 1.505 1.238 1.238 0 01-.889-1.186V10.32c0-1.214.77-2.298 1.917-2.696l1.851-.643v1.851c0 .356.289.645.645.645h6.085a.645.645 0 00.644-.645V7.097l7.049 2.923a.685.685 0 01.424.635v1.998z"/>
  <path fill="currentColor" d="M12.432 10.33h-.865a.645.645 0 100 1.29h.865a.645.645 0 000-1.29z"/>
</svg>
