<svg xmlns="http://www.w3.org/2000/svg" viewBox="0 0 48 48">
  <path fill="currentColor" d="M46.305 28.42l-2.815-2.221a1.407 1.407 0 00-.871-.302H29.661v-4.571h1.714a4.457 4.457 0 004.452-4.452v-3.132a4.457 4.457 0 00-4.452-4.452h-1.714V5.661A5.668 5.668 0 0024 0a5.668 5.668 0 00-5.661 5.661v3.63H5.38c-.316 0-.623.105-.87.301l-2.816 2.22A4.426 4.426 0 000 15.309c0 1.372.618 2.646 1.695 3.495l2.815 2.22c.248.197.555.303.871.303h12.958v4.57h-1.714a4.457 4.457 0 00-4.452 4.453v3.132a4.457 4.457 0 004.452 4.452h1.714v6.555h-.823a1.406 1.406 0 000 2.812h12.968a1.406 1.406 0 000-2.812h-.823v-6.555H42.62c.316 0 .623-.107.87-.302l2.816-2.22A4.426 4.426 0 0048 31.914a4.426 4.426 0 00-1.695-3.496zM21.151 5.66A2.852 2.852 0 0124 2.813a2.852 2.852 0 012.849 2.848v3.63H21.15V5.66zM5.87 18.514l-2.432-1.919a1.63 1.63 0 01-.624-1.287c0-.505.227-.974.624-1.287l2.432-1.918h25.506c.904 0 1.64.735 1.64 1.639v3.132c0 .904-.736 1.64-1.64 1.64H5.869zm20.98 2.812v4.57H21.15v-4.57h5.698zm0 23.162H21.15v-6.555h5.698v6.555zm17.714-11.286l-2.432 1.918H16.625c-.904 0-1.64-.735-1.64-1.64V30.35c0-.904.736-1.64 1.64-1.64H42.13l2.432 1.919c.397.313.624.782.624 1.287 0 .505-.227.974-.624 1.287z"/>
</svg>
