<svg xmlns="http://www.w3.org/2000/svg" viewBox="0 0 22 22">
  <path fill="currentColor" d="M17.108 12.9a3.101 3.101 0 003.097-3.098V7.15a3.103 3.103 0 00-2.288-2.99l.211-2.026A1.936 1.936 0 0016.205 0H5.322A1.937 1.937 0 003.4 2.134L4.811 15.7A1.937 1.937 0 003.248 17.6v.259h-.809a.645.645 0 00-.644.644v2.854c0 .355.288.644.644.644h16.65a.645.645 0 00.644-.645v-2.853a.645.645 0 00-.645-.644h-.808v-.259c0-.94-.674-1.725-1.564-1.898l.291-2.802h.1zm.672-7.428a1.811 1.811 0 011.136 1.678v2.652a1.81 1.81 0 01-1.774 1.807l.639-6.137zm.663 13.675v1.564H3.084v-1.564h15.36zm-1.453-1.548v.259H4.538v-.259c0-.355.289-.644.644-.644h11.165c.355 0 .645.289.645.644zM16.847 2l-1.422 13.665h-9.32L4.68 2a.637.637 0 01.163-.498.637.637 0 01.478-.213h10.883c.185 0 .355.076.479.213a.637.637 0 01.162.498z"/>
  <path fill="currentColor" d="M15.448 2.51a.644.644 0 00-.48-.215H6.559a.645.645 0 00-.64.715l.418 3.833a.645.645 0 00.64.574h7.572a.645.645 0 00.641-.574l.418-3.833a.644.644 0 00-.16-.5zm-1.476 3.618H7.556l-.278-2.544h6.971l-.277 2.544z"/>
</svg>
