<svg xmlns="http://www.w3.org/2000/svg" viewBox="0 0 22 22">
  <g clip-path="url(#clip0)">
    <path fill="currentColor" d="M6.9.884C6.14.314 5.138 0 4.081 0 3.025 0 2.025.314 1.265.884.449 1.496 0 2.326 0 3.223 0 4.119.45 4.95 1.265 5.56c.76.57 1.76.884 2.817.884 1.057 0 2.057-.314 2.817-.884.816-.611 1.265-1.442 1.265-2.338 0-.897-.449-1.727-1.265-2.339zM6.66 19.422a.645.645 0 100-1.29.645.645 0 000 1.29zM9.238 19.422a.645.645 0 100-1.29.645.645 0 000 1.29zM11.816 19.422a.645.645 0 100-1.29.645.645 0 000 1.29zM4.082 19.422a.645.645 0 100-1.29.645.645 0 000 1.29zM4.082 11.688a.645.645 0 100-1.29.645.645 0 000 1.29zM4.082 9.11a.645.645 0 100-1.29.645.645 0 000 1.29zM4.082 16.844a.645.645 0 100-1.29.645.645 0 000 1.29zM4.082 14.266a.644.644 0 100-1.29.644.644 0 000 1.29zM19.04 19.075a1.942 1.942 0 01-1.549.777c-.607 0-1.186-.29-1.55-.777l-1.689-2.263c-.534.55-.843 1.236-.843 1.965 0 .897.45 1.727 1.265 2.339.76.57 1.76.884 2.817.884 1.057 0 2.058-.314 2.818-.884.815-.612 1.264-1.442 1.264-2.339 0-.729-.309-1.415-.843-1.965l-1.69 2.263zM17.491 12.117a.645.645 0 100-1.289.645.645 0 000 1.29z"/>
    <path fill="currentColor" d="M16.975 18.304a.644.644 0 001.033 0L21.1 14.16a4.481 4.481 0 00.417-4.714 4.481 4.481 0 00-4.027-2.486 4.481 4.481 0 00-4.027 2.486 4.48 4.48 0 00.418 4.714l3.093 4.143zm.516-8.765c1.066 0 1.934.867 1.934 1.934a1.936 1.936 0 01-1.934 1.933 1.936 1.936 0 01-1.933-1.933c0-1.067.867-1.934 1.933-1.934z"/>
  </g>
  <defs>
    <clipPath id="clip0">
      <path fill="#fff" d="M0 0h22v22H0z"/>
    </clipPath>
  </defs>
</svg>
