<svg xmlns="http://www.w3.org/2000/svg" viewBox="0 0 22 22">
  <g clip-path="url(#clip0)">
    <path fill="currentColor" d="M2.71 18.077a.618.618 0 10.002 1.237.618.618 0 00-.001-1.237zM18.759 18.077a.618.618 0 100 1.237.618.618 0 000-1.237z"/>
    <path fill="currentColor" d="M19.142 15.477L15.178 1.11A.495.495 0 0014.7.747h-1.14a.495.495 0 100 .99h.763l1.245 4.512a.495.495 0 00-.432.624l2.43 8.808a3.25 3.25 0 00-2.012 2.52h-9.64a3.247 3.247 0 00-3.204-2.748H.495a.495.495 0 000 .99H1.5a2.56 2.56 0 00-1.347 2.252 2.56 2.56 0 002.558 2.557c1.26 0 2.31-.917 2.52-2.118a.492.492 0 00.227.055h10.554c.082 0 .16-.02.227-.055a2.561 2.561 0 002.52 2.119c1.26 0 2.31-.918 2.519-2.12a.493.493 0 00.722-.438 3.246 3.246 0 00-2.858-3.218zM2.71 20.263a1.57 1.57 0 01-1.568-1.568 1.57 1.57 0 011.568-1.568 1.57 1.57 0 011.568 1.568 1.57 1.57 0 01-1.568 1.568zm16.048 0a1.57 1.57 0 01-1.569-1.568 1.57 1.57 0 011.569-1.568 1.57 1.57 0 011.568 1.568 1.57 1.57 0 01-1.568 1.568z"/>
  </g>
  <defs>
    <clipPath id="clip0">
      <path fill="#fff" d="M0 0h22v22H0z"/>
    </clipPath>
  </defs>
</svg>
