<svg xmlns="http://www.w3.org/2000/svg" viewBox="0 0 22 22">
  <path fill="currentColor" d="M19.567 12.9h-7.136c-.63 0-1.143-.513-1.143-1.144v-.095c0-.63.513-1.144 1.143-1.144h6.72c.538 0 1.01-.323 1.206-.823l1.426-3.643a2.823 2.823 0 00-2.631-3.855 2.823 2.823 0 00-2.631 3.855l1.243 3.177h-5.332a2.435 2.435 0 00-2.433 2.433v.095a2.435 2.435 0 002.432 2.433h7.136c.63 0 1.144.513 1.144 1.143 0 .631-.513 1.144-1.144 1.144H8.894c-.206-.533-.67-1.005-1.355-1.367a5.215 5.215 0 00-.89-.363l1.542-3.942a3.953 3.953 0 00-3.684-5.397 3.953 3.953 0 00-3.684 5.397l1.542 3.942c-.32.099-.619.22-.89.363C.524 15.611 0 16.326 0 17.121c0 .795.524 1.51 1.475 2.011.82.433 1.897.672 3.032.672s2.212-.239 3.032-.672c.686-.362 1.15-.834 1.355-1.367h10.673A2.435 2.435 0 0022 15.332a2.435 2.435 0 00-2.433-2.432zM17.721 5.58c-.187-.48-.128-1 .162-1.426.291-.425.753-.67 1.269-.67.515 0 .978.245 1.268.67.291.426.35.946.162 1.426l-1.425 3.644-.002.003h-.007l-.001-.003-1.425-3.644zM2.023 10.335a2.63 2.63 0 01.281-2.476 2.63 2.63 0 012.203-1.163A2.63 2.63 0 016.71 7.859a2.63 2.63 0 01.28 2.476l-2.164 5.533a.33.33 0 01-.319.218.33.33 0 01-.319-.218l-2.165-5.533zm4.915 7.657c-.63.332-1.516.523-2.43.523-.916 0-1.802-.19-2.431-.523-.493-.26-.788-.586-.788-.871 0-.286.295-.612.788-.872a4 4 0 01.76-.298l.15.387c.247.63.844 1.037 1.52 1.037.677 0 1.273-.407 1.52-1.037l.15-.387c.28.08.536.18.76.298.494.26.788.586.788.872 0 .285-.294.61-.787.871z"/>
</svg>
