<svg xmlns="http://www.w3.org/2000/svg" viewBox="0 0 22 22">
  <path fill="currentColor" d="M17.95 5.222A9.792 9.792 0 0014.271 2.9 3.293 3.293 0 0011 0a3.294 3.294 0 00-3.272 2.9A9.792 9.792 0 004.05 5.221a9.764 9.764 0 00-2.878 6.95 9.764 9.764 0 002.878 6.95A9.764 9.764 0 0011 22a9.763 9.763 0 006.95-2.879 9.764 9.764 0 002.878-6.95 9.764 9.764 0 00-2.878-6.949zM9.343 2.164A1.98 1.98 0 0111 1.29a1.98 1.98 0 011.657.875 1.98 1.98 0 01.212 1.863l-1.733 4.43a.135.135 0 01-.136.092.135.135 0 01-.136-.092l-1.733-4.43a1.979 1.979 0 01.212-1.863zm-1.5 2.074c.025.087.055.173.088.258l1.61 4.113a.644.644 0 00.27 1.23h2.378a.645.645 0 00.271-1.23l1.61-4.113c.032-.085.062-.171.088-.258a8.577 8.577 0 013.292 2.343 3.252 3.252 0 00-2.351 3.12 1.96 1.96 0 01-1.958 1.958h-1.474a2.047 2.047 0 00-2.045 2.045v.542c0 1.08-.88 1.96-1.96 1.96-1.082 0-1.961-.88-1.961-1.96V9.538c0-1.06-.851-1.923-1.906-1.944a8.589 8.589 0 014.047-3.356zM11 20.711c-4.708 0-8.54-3.83-8.54-8.54 0-1.165.236-2.276.66-3.29h.635c.362 0 .657.295.657.657v4.708a3.253 3.253 0 003.25 3.25 3.253 3.253 0 003.249-3.25v-.542c0-.417.339-.756.756-.756h1.474a3.25 3.25 0 003.247-3.247 1.96 1.96 0 011.911-1.956 8.487 8.487 0 011.24 4.427c0 4.708-3.83 8.539-8.539 8.539z"/>
  <path fill="currentColor" d="M14.852 13.466h-1.384a1.995 1.995 0 00-1.993 1.993c0 1.099.894 1.992 1.993 1.992h1.384a1.995 1.995 0 001.993-1.992 1.995 1.995 0 00-1.993-1.993zm0 2.696h-1.384a.704.704 0 010-1.407h1.384a.705.705 0 010 1.407z"/>
</svg>
